<svg width="73" height="80" viewBox="0 0 73 80" fill="none" xmlns="http://www.w3.org/2000/svg">
<path d="M40 72H12C10.9391 72 9.92172 71.5786 9.17157 70.8284C8.42143 70.0783 8 69.0609 8 68V12C8 10.9391 8.42143 9.92172 9.17157 9.17157C9.92172 8.42143 10.9391 8 12 8H32V20C32 23.1826 33.2643 26.2348 35.5147 28.4853C37.7652 30.7357 40.8174 32 44 32H56V40C56 41.0609 56.4214 42.0783 57.1716 42.8284C57.9217 43.5786 58.9391 44 60 44C61.0609 44 62.0783 43.5786 62.8284 42.8284C63.5786 42.0783 64 41.0609 64 40V27.76C63.9583 27.3925 63.8779 27.0305 63.76 26.68V26.32C63.5677 25.9087 63.3111 25.5307 63 25.2L39 1.2C38.6693 0.888865 38.2913 0.632324 37.88 0.44C37.7606 0.42304 37.6394 0.42304 37.52 0.44C37.1137 0.206965 36.6649 0.0573768 36.2 0H12C8.8174 0 5.76516 1.26428 3.51472 3.51472C1.26428 5.76516 0 8.8174 0 12V68C0 71.1826 1.26428 74.2348 3.51472 76.4853C5.76516 78.7357 8.8174 80 12 80H40C41.0609 80 42.0783 79.5786 42.8284 78.8284C43.5786 78.0783 44 77.0609 44 76C44 74.9391 43.5786 73.9217 42.8284 73.1716C42.0783 72.4214 41.0609 72 40 72ZM40 13.64L50.36 24H44C42.9391 24 41.9217 23.5786 41.1716 22.8284C40.4214 22.0783 40 21.0609 40 20V13.64ZM20 24C18.9391 24 17.9217 24.4214 17.1716 25.1716C16.4214 25.9217 16 26.9391 16 28C16 29.0609 16.4214 30.0783 17.1716 30.8284C17.9217 31.5786 18.9391 32 20 32H24C25.0609 32 26.0783 31.5786 26.8284 30.8284C27.5786 30.0783 28 29.0609 28 28C28 26.9391 27.5786 25.9217 26.8284 25.1716C26.0783 24.4214 25.0609 24 24 24H20ZM44 40H20C18.9391 40 17.9217 40.4214 17.1716 41.1716C16.4214 41.9217 16 42.9391 16 44C16 45.0609 16.4214 46.0783 17.1716 46.8284C17.9217 47.5786 18.9391 48 20 48H44C45.0609 48 46.0783 47.5786 46.8284 46.8284C47.5786 46.0783 48 45.0609 48 44C48 42.9391 47.5786 41.9217 46.8284 41.1716C46.0783 40.4214 45.0609 40 44 40ZM70.84 61.16L62.84 53.16C62.4596 52.7958 62.011 52.5104 61.52 52.32C60.5462 51.9199 59.4538 51.9199 58.48 52.32C57.989 52.5104 57.5404 52.7958 57.16 53.16L49.16 61.16C48.4068 61.9132 47.9836 62.9348 47.9836 64C47.9836 65.0652 48.4068 66.0868 49.16 66.84C49.9132 67.5932 50.9348 68.0164 52 68.0164C53.0652 68.0164 54.0868 67.5932 54.84 66.84L56 65.64V76C56 77.0609 56.4214 78.0783 57.1716 78.8284C57.9217 79.5786 58.9391 80 60 80C61.0609 80 62.0783 79.5786 62.8284 78.8284C63.5786 78.0783 64 77.0609 64 76V65.64L65.16 66.84C65.5319 67.2149 65.9743 67.5125 66.4617 67.7156C66.9491 67.9186 67.472 68.0232 68 68.0232C68.528 68.0232 69.0509 67.9186 69.5383 67.7156C70.0257 67.5125 70.4681 67.2149 70.84 66.84C71.2149 66.4681 71.5125 66.0257 71.7156 65.5383C71.9186 65.0509 72.0232 64.528 72.0232 64C72.0232 63.472 71.9186 62.9491 71.7156 62.4617C71.5125 61.9743 71.2149 61.5319 70.84 61.16V61.16ZM36 64C37.0609 64 38.0783 63.5786 38.8284 62.8284C39.5786 62.0783 40 61.0609 40 60C40 58.9391 39.5786 57.9217 38.8284 57.1716C38.0783 56.4214 37.0609 56 36 56H20C18.9391 56 17.9217 56.4214 17.1716 57.1716C16.4214 57.9217 16 58.9391 16 60C16 61.0609 16.4214 62.0783 17.1716 62.8284C17.9217 63.5786 18.9391 64 20 64H36Z" fill="black"/>
</svg>
