<svg width="24" height="24" viewBox="0 0 24 24" fill="none" xmlns="http://www.w3.org/2000/svg">
<path d="M5 2C3.9 2 3 2.9 3 4V19C3 20.1 3.9 21 5 21H10.3125C10.1125 20.4 10 19.7 10 19H5V4H17V12C17.7 12 18.4 12.1125 19 12.3125V4C19 2.9 18.1 2 17 2H5ZM17 14C14.2504 14 12 16.2504 12 19C12 21.7496 14.2504 24 17 24C19.7496 24 22 21.7496 22 19C22 16.2504 19.7496 14 17 14ZM17 16C17.4679 16 17.9195 16.0938 18.3125 16.2812L14.2812 20.3125C14.0938 19.9195 14 19.4679 14 19C14 17.3313 15.3313 16 17 16ZM19.7188 17.6875C19.9062 18.0805 20 18.5321 20 19C20 20.6687 18.6687 22 17 22C16.5321 22 16.0805 21.9062 15.6875 21.7188L19.7188 17.6875Z" fill="#4169E1"/>
</svg>
