<svg width="24" height="24" viewBox="0 0 24 24" fill="none" xmlns="http://www.w3.org/2000/svg">
<path d="M13.1249 1.125V3H14.6024C15.0584 3 15.5069 3.12 15.9029 3.3465L17.8379 4.4505C17.8949 4.4835 17.9579 4.5 18.0239 4.5H21.3749C21.6732 4.5 21.9594 4.61853 22.1704 4.8295C22.3813 5.04048 22.4999 5.32663 22.4999 5.625C22.4999 5.92337 22.3813 6.20952 22.1704 6.4205C21.9594 6.63147 21.6732 6.75 21.3749 6.75H20.7344L23.9009 13.788C23.9944 13.9962 24.0224 14.228 23.9812 14.4525C23.9399 14.677 23.8313 14.8837 23.6699 15.045L22.8749 14.25L23.6684 15.0465L23.6669 15.0495L23.6639 15.0525L23.6549 15.0615L23.6459 15.069L23.6309 15.084L23.5634 15.144C23.2484 15.408 22.9019 15.6345 22.5344 15.819C21.8339 16.17 20.8199 16.5 19.4999 16.5C18.4491 16.5124 17.41 16.2792 16.4654 15.819C16.0974 15.6346 15.7521 15.4081 15.4364 15.144L15.3689 15.084L15.3449 15.0615L15.3359 15.0525L15.3299 15.0465V15.045C15.1684 14.8837 15.0598 14.677 15.0185 14.4525C14.9773 14.228 15.0053 13.9962 15.0989 13.788L18.2669 6.75H18.0239C17.5664 6.75 17.1179 6.6315 16.7219 6.4035L14.7869 5.2995C14.7304 5.26677 14.6662 5.24968 14.6009 5.25H13.1249V19.5H16.8749C17.1732 19.5 17.4594 19.6185 17.6704 19.8295C17.8813 20.0405 17.9999 20.3266 17.9999 20.625C17.9999 20.9234 17.8813 21.2095 17.6704 21.4205C17.4594 21.6315 17.1732 21.75 16.8749 21.75H7.12486C6.82649 21.75 6.54034 21.6315 6.32936 21.4205C6.11839 21.2095 5.99986 20.9234 5.99986 20.625C5.99986 20.3266 6.11839 20.0405 6.32936 19.8295C6.54034 19.6185 6.82649 19.5 7.12486 19.5H10.8749V5.25H9.39886C9.33356 5.24968 9.26936 5.26677 9.21286 5.2995L7.27936 6.405C6.88186 6.63 6.43336 6.75 5.97586 6.75H5.73286L8.90086 13.788C8.99443 13.9962 9.02245 14.228 8.98119 14.4525C8.93993 14.677 8.83135 14.8837 8.66986 15.045L7.87486 14.25L8.66836 15.0465L8.66686 15.0495L8.66386 15.0525L8.65486 15.0615L8.63086 15.084L8.56336 15.144C8.24836 15.408 7.90186 15.6345 7.53436 15.819C6.83386 16.17 5.81986 16.5 4.49986 16.5C3.44913 16.5124 2.41003 16.2792 1.46536 15.819C1.09739 15.6346 0.752072 15.4081 0.43636 15.144L0.36886 15.084L0.34486 15.0615L0.33586 15.0525L0.32986 15.0465V15.045C0.168373 14.8837 0.0597889 14.677 0.0185293 14.4525C-0.0227302 14.228 0.00528697 13.9962 0.0988599 13.788L3.26686 6.75H2.62486C2.32649 6.75 2.04034 6.63147 1.82936 6.4205C1.61839 6.20952 1.49986 5.92337 1.49986 5.625C1.49986 5.32663 1.61839 5.04048 1.82936 4.8295C2.04034 4.61853 2.32649 4.5 2.62486 4.5H5.97586C6.04163 4.5003 6.10631 4.48322 6.16336 4.4505L8.09536 3.345C8.49286 3.12 8.94136 3 9.39886 3H10.8749V1.125C10.8749 0.826631 10.9934 0.540483 11.2044 0.329505C11.4153 0.118526 11.7015 0 11.9999 0C12.2982 0 12.5844 0.118526 12.7954 0.329505C13.0063 0.540483 13.1249 0.826631 13.1249 1.125V1.125ZM17.5424 13.8405C17.9699 14.043 18.6194 14.25 19.4999 14.25C20.3804 14.25 21.0299 14.043 21.4574 13.8405L19.4999 9.4905L17.5424 13.8405ZM2.54236 13.8405C2.96986 14.043 3.61936 14.25 4.49986 14.25C5.38036 14.25 6.02986 14.043 6.45736 13.8405L4.49986 9.4905L2.54236 13.8405Z" fill="#4169E1"/>
</svg>
