<svg width="24" height="24" viewBox="0 0 24 24" fill="none" xmlns="http://www.w3.org/2000/svg">
<path d="M18.75 21V15M15.75 18H21.75M21.75 6.75V12M21.75 6.75C21.75 6.35218 21.592 5.97064 21.3107 5.68934C21.0294 5.40804 20.6478 5.25 20.25 5.25H3.75C3.35218 5.25 2.97064 5.40804 2.68934 5.68934C2.40804 5.97064 2.25 6.35218 2.25 6.75M21.75 6.75L12.8535 12.909C12.6027 13.0825 12.305 13.1755 12 13.1755C11.695 13.1755 11.3973 13.0825 11.1465 12.909L2.25 6.75M2.25 6.75V17.25C2.25 17.6478 2.40804 18.0294 2.68934 18.3107C2.97064 18.592 3.35218 18.75 3.75 18.75H11.25" stroke="#4169E1" stroke-width="2" stroke-linecap="round" stroke-linejoin="round"/>
</svg>
