<svg width="24" height="24" viewBox="0 0 24 24" fill="none" xmlns="http://www.w3.org/2000/svg">
<path d="M16.474 5.40783L18.592 7.52483M17.836 3.54283L12.109 9.26983C11.8131 9.56533 11.6113 9.94181 11.529 10.3518L11 12.9998L13.648 12.4698C14.058 12.3878 14.434 12.1868 14.73 11.8908L20.457 6.16383C20.6291 5.99173 20.7656 5.78742 20.8588 5.56256C20.9519 5.33771 20.9998 5.09671 20.9998 4.85333C20.9998 4.60994 20.9519 4.36895 20.8588 4.14409C20.7656 3.91923 20.6291 3.71492 20.457 3.54283C20.2849 3.37073 20.0806 3.23421 19.8557 3.14108C19.6309 3.04794 19.3899 3 19.1465 3C18.9031 3 18.6621 3.04794 18.4373 3.14108C18.2124 3.23421 18.0081 3.37073 17.836 3.54283V3.54283Z" stroke="#5C5C5C" stroke-width="2" stroke-linecap="round" stroke-linejoin="round"/>
<path d="M19 15V18C19 18.5304 18.7893 19.0391 18.4142 19.4142C18.0391 19.7893 17.5304 20 17 20H6C5.46957 20 4.96086 19.7893 4.58579 19.4142C4.21071 19.0391 4 18.5304 4 18V7C4 6.46957 4.21071 5.96086 4.58579 5.58579C4.96086 5.21071 5.46957 5 6 5H9" stroke="#5C5C5C" stroke-width="2" stroke-linecap="round" stroke-linejoin="round"/>
</svg>
