<svg width="24" height="24" viewBox="0 0 24 24" fill="none" xmlns="http://www.w3.org/2000/svg">
<path d="M2 6H22M10 11V16M14 11V16M4 6H20L18.42 20.22C18.3658 20.7094 18.1331 21.1616 17.7663 21.49C17.3994 21.8184 16.9244 22 16.432 22H7.568C7.07564 22 6.60056 21.8184 6.23375 21.49C5.86693 21.1616 5.63416 20.7094 5.58 20.22L4 6ZM7.345 3.147C7.50675 2.80397 7.76271 2.514 8.083 2.31091C8.4033 2.10782 8.77474 2 9.154 2H14.846C15.2254 1.99981 15.5971 2.10755 15.9176 2.31064C16.2381 2.51374 16.4942 2.80381 16.656 3.147L18 6H6L7.345 3.147V3.147Z" stroke="#5C5C5C" stroke-width="2" stroke-linecap="round" stroke-linejoin="round"/>
</svg>
