<svg width="20" height="20" viewBox="0 0 20 20" fill="none" xmlns="http://www.w3.org/2000/svg">
<path d="M9.99935 1.66669C5.39102 1.66669 1.66602 5.39169 1.66602 10C1.66602 14.6084 5.39102 18.3334 9.99935 18.3334C14.6077 18.3334 18.3327 14.6084 18.3327 10C18.3327 5.39169 14.6077 1.66669 9.99935 1.66669ZM13.5827 13.5834C13.5056 13.6606 13.414 13.7219 13.3132 13.7637C13.2124 13.8055 13.1043 13.8271 12.9952 13.8271C12.886 13.8271 12.778 13.8055 12.6772 13.7637C12.5764 13.7219 12.4848 13.6606 12.4077 13.5834L9.99935 11.175L7.59102 13.5834C7.4352 13.7392 7.22387 13.8267 7.00352 13.8267C6.78316 13.8267 6.57183 13.7392 6.41602 13.5834C6.2602 13.4275 6.17267 13.2162 6.17267 12.9959C6.17267 12.8867 6.19416 12.7787 6.23591 12.6779C6.27766 12.5771 6.33886 12.4855 6.41602 12.4084L8.82435 10L6.41602 7.59169C6.2602 7.43587 6.17267 7.22454 6.17267 7.00419C6.17267 6.78383 6.2602 6.5725 6.41602 6.41669C6.57183 6.26087 6.78316 6.17334 7.00352 6.17334C7.22387 6.17334 7.4352 6.26087 7.59102 6.41669L9.99935 8.82502L12.4077 6.41669C12.4848 6.33954 12.5764 6.27834 12.6772 6.23658C12.778 6.19483 12.8861 6.17334 12.9952 6.17334C13.1043 6.17334 13.2123 6.19483 13.3131 6.23658C13.4139 6.27834 13.5055 6.33954 13.5827 6.41669C13.6598 6.49384 13.721 6.58543 13.7628 6.68623C13.8045 6.78704 13.826 6.89508 13.826 7.00419C13.826 7.1133 13.8045 7.22134 13.7628 7.32214C13.721 7.42294 13.6598 7.51453 13.5827 7.59169L11.1743 10L13.5827 12.4084C13.8993 12.725 13.8993 13.2584 13.5827 13.5834Z" fill="#D1350D"/>
</svg>
