<svg width="24" height="24" viewBox="0 0 24 24" fill="none" xmlns="http://www.w3.org/2000/svg">
<g clip-path="url(#clip0_1367_656)">
<path d="M14.7547 11.9499L14.8006 12.1144L14.9216 11.9938L15.7086 11.2098L15.7554 11.1632L15.7308 11.1018C15.4819 10.4805 15.1065 9.89907 14.6037 9.39633C13.6092 8.40075 12.3024 7.903 10.998 7.903C9.69262 7.903 8.38581 8.40075 7.39125 9.39633L2.39331 14.3943C2.3933 14.3943 2.3933 14.3943 2.39329 14.3943C0.402249 16.3843 0.402236 19.6166 2.39325 21.6067C3.3878 22.6022 4.6936 23.1 5.999 23.1C7.3044 23.1 8.6102 22.6022 9.60475 21.6067L14.2617 16.9507L14.4949 16.7176L14.1715 16.7819C13.7913 16.8576 13.4003 16.8969 13.0033 16.897L12.6717 16.888L12.6287 16.8869L12.5983 16.9173L8.7563 20.7583L8.75627 20.7583C7.23529 22.2803 4.76464 22.2822 3.24173 20.7583L3.24169 20.7583C1.71782 19.2354 1.71871 16.7667 3.24171 15.2427C3.24172 15.2427 3.24173 15.2427 3.24173 15.2427L8.23971 10.2447L8.23973 10.2447C9.76265 8.7208 12.2323 8.72173 13.7553 10.2447L13.7554 10.2448C14.2469 10.7353 14.5802 11.3251 14.7547 11.9499ZM9.24438 12.0433L9.1987 11.8783L9.07742 11.9992L8.28942 12.7842L8.24264 12.8308L8.26713 12.8921C8.51607 13.5154 8.89251 14.0989 9.39622 14.6036L9.39625 14.6037C10.3908 15.5992 11.6966 16.097 13.002 16.097C14.3074 16.097 15.6132 15.5992 16.6077 14.6037L21.6067 9.60572L21.6067 9.60569C23.5967 7.61467 23.5968 4.38339 21.6067 2.39333C20.6122 1.39775 19.3054 0.9 18.001 0.9C16.6956 0.9 15.3888 1.39775 14.3943 2.39333L9.73829 7.04929L9.50517 7.28241L9.82851 7.21808C10.2087 7.14243 10.5997 7.10309 10.9966 7.103L11.3283 7.11196L11.3713 7.11313L11.4017 7.08271L15.2427 3.24171L15.2427 3.24169C16.7656 1.7178 19.2353 1.71873 20.7583 3.24171L20.7583 3.24173C22.2822 4.76468 22.2822 7.23432 20.7583 8.75727L20.7583 8.75728L15.7593 13.7553L15.7593 13.7553C14.2383 15.2772 11.7677 15.2792 10.2448 13.7554C9.75217 13.2618 9.41785 12.67 9.24438 12.0433Z" fill="black" stroke="black" stroke-width="0.2"/>
</g>
<defs>
<clipPath id="clip0_1367_656">
<rect width="24" height="24" fill="white"/>
</clipPath>
</defs>
</svg>
