<svg width="24" height="24" fill="none" xmlns="http://www.w3.org/2000/svg"><g clip-path="url(#a)"><path d="m14.755 11.95.046.164.12-.12.788-.784.046-.047-.024-.061a5.076 5.076 0 0 0-1.127-1.706 5.083 5.083 0 0 0-3.606-1.493 5.083 5.083 0 0 0-3.607 1.493l-4.998 4.998A5.101 5.101 0 0 0 6 23.1a5.081 5.081 0 0 0 3.606-1.493l4.657-4.656.233-.233-.323.064c-.38.076-.772.115-1.169.115l-.331-.009-.043-.001-.03.03-3.843 3.841a3.9 3.9 0 1 1-5.515-5.516l4.999-4.997a3.9 3.9 0 0 1 5.515 0c.492.49.825 1.08 1 1.705Zm-5.51.093-.046-.165-.122.121-.788.785-.046.047.024.061a5.092 5.092 0 0 0 1.13 1.712 5.081 5.081 0 0 0 3.605 1.493 5.081 5.081 0 0 0 3.606-1.493l4.999-4.998a5.103 5.103 0 0 0 0-7.213A5.083 5.083 0 0 0 18 .9a5.083 5.083 0 0 0-3.607 1.493L9.738 7.05l-.233.233.324-.064c.38-.076.77-.115 1.168-.115l.331.009.043.001.03-.03 3.842-3.841a3.9 3.9 0 0 1 5.515 0 3.899 3.899 0 0 1 0 5.515l-4.999 4.998a3.9 3.9 0 0 1-6.515-1.712Z" fill="#000" stroke="#000" stroke-width=".2"/></g><defs><clipPath id="a"><path fill="#fff" d="M0 0h24v24H0z"/></clipPath></defs></svg>