<svg viewBox="0 0 30 30" fill="none" xmlns="http://www.w3.org/2000/svg">
<path fill-rule="evenodd" clip-rule="evenodd" d="M19.7945 1.82958L4.67751 16.9466C4.45153 17.172 4.30335 17.4636 4.25451 17.7791L3.19701 24.6701C3.16133 24.9028 3.18094 25.1407 3.25425 25.3645C3.32757 25.5882 3.45253 25.7916 3.61903 25.9581C3.78552 26.1246 3.98888 26.2495 4.21264 26.3228C4.4364 26.3962 4.67427 26.4158 4.90701 26.3801L11.7995 25.3226C12.1148 25.2742 12.4064 25.1265 12.632 24.9011L27.749 9.78408C28.0302 9.50279 28.1882 9.12133 28.1882 8.72358C28.1882 8.32583 28.0302 7.94437 27.749 7.66308L21.914 1.82808C21.6328 1.54733 21.2516 1.38965 20.8543 1.38965C20.4569 1.38965 20.0757 1.54733 19.7945 1.82808V1.82958ZM6.47301 23.1056L7.14501 18.7196L20.855 5.00958L24.5675 8.72358L10.8575 22.4336L6.47301 23.1056V23.1056Z" fill="black"/>
<path d="M17.1602 7.8708L18.7502 6.2793L23.6132 11.1393L22.0217 12.7308L17.1602 7.8708Z" fill="black"/>
</svg>
