<svg width="20" height="20" viewBox="0 0 20 20" fill="none" xmlns="http://www.w3.org/2000/svg">
<path d="M11.2869 8.7133C10.6043 8.031 9.67871 7.64771 8.71358 7.64771C7.74846 7.64771 6.82284 8.031 6.14025 8.7133L3.56608 11.2866C2.88348 11.9692 2.5 12.895 2.5 13.8604C2.5 14.8257 2.88348 15.7515 3.56608 16.4341C4.24868 17.1167 5.17449 17.5002 6.13983 17.5002C7.10518 17.5002 8.03098 17.1167 8.71358 16.4341L10.0002 15.1475" stroke="#979797" stroke-width="2" stroke-linecap="round" stroke-linejoin="round"/>
<path d="M8.71289 11.2867C9.39548 11.969 10.3211 12.3523 11.2862 12.3523C12.2513 12.3523 13.177 11.969 13.8596 11.2867L16.4337 8.71334C17.1163 8.03074 17.4998 7.10493 17.4998 6.13959C17.4998 5.17424 17.1163 4.24844 16.4337 3.56584C15.7511 2.88324 14.8253 2.49976 13.86 2.49976C12.8946 2.49976 11.9688 2.88324 11.2862 3.56584L9.99956 4.8525" stroke="#979797" stroke-width="2" stroke-linecap="round" stroke-linejoin="round"/>
</svg>
