<svg xmlns="http://www.w3.org/2000/svg" viewBox="0 0 24 24" width='24px' height='24px'>
<path d="M26.25 2.8125H3.75C2.71447 2.8125 1.875 3.65197 1.875 4.6875V5.625C1.875 6.66053 2.71447 7.5 3.75 7.5H26.25C27.2855 7.5 28.125 6.66053 28.125 5.625V4.6875C28.125 3.65197 27.2855 2.8125 26.25 2.8125Z" fill="black"/>
<path d="M4.36191 9.37501C4.29603 9.37465 4.23083 9.38818 4.17054 9.41472C4.11024 9.44126 4.05622 9.48021 4.01199 9.52902C3.96777 9.57784 3.93432 9.63543 3.91385 9.69804C3.89337 9.76065 3.88632 9.82687 3.89316 9.89239L5.43476 24.6908C5.43444 24.6951 5.43444 24.6994 5.43476 24.7037C5.51531 25.3882 5.84437 26.0193 6.35949 26.4771C6.8746 26.935 7.5399 27.1878 8.22909 27.1875H21.7695C22.4585 27.1875 23.1235 26.9346 23.6384 26.4767C24.1533 26.0189 24.4822 25.388 24.5627 24.7037V24.6914L26.102 9.89239C26.1088 9.82687 26.1017 9.76065 26.0813 9.69804C26.0608 9.63543 26.0273 9.57784 25.9831 9.52902C25.9389 9.48021 25.8849 9.44126 25.8246 9.41472C25.7643 9.38818 25.6991 9.37465 25.6332 9.37501H4.36191ZM18.9436 19.9623C19.0327 20.0489 19.1037 20.1524 19.1525 20.2666C19.2013 20.3809 19.2268 20.5038 19.2277 20.6281C19.2286 20.7523 19.2048 20.8755 19.1576 20.9905C19.1105 21.1055 19.0409 21.2099 18.953 21.2978C18.8651 21.3856 18.7606 21.4551 18.6457 21.5022C18.5307 21.5493 18.4075 21.5731 18.2832 21.5722C18.1589 21.5712 18.0361 21.5456 17.9218 21.4968C17.8076 21.4479 17.7041 21.3769 17.6176 21.2877L14.9996 18.6697L12.3811 21.2877C12.2044 21.4593 11.9674 21.5545 11.7211 21.5528C11.4748 21.551 11.2392 21.4525 11.065 21.2784C10.8908 21.1043 10.7921 20.8686 10.7903 20.6224C10.7884 20.3761 10.8835 20.139 11.0551 19.9623L13.6736 17.3438L11.0551 14.7252C10.8835 14.5485 10.7884 14.3114 10.7903 14.0651C10.7921 13.8189 10.8908 13.5832 11.065 13.4091C11.2392 13.235 11.4748 13.1365 11.7211 13.1347C11.9674 13.133 12.2044 13.2282 12.3811 13.3998L14.9996 16.0178L17.6176 13.3998C17.7942 13.2282 18.0313 13.133 18.2775 13.1347C18.5238 13.1365 18.7595 13.235 18.9336 13.4091C19.1078 13.5832 19.2065 13.8189 19.2084 14.0651C19.2102 14.3114 19.1151 14.5485 18.9436 14.7252L16.325 17.3438L18.9436 19.9623Z" fill="black"/>
</svg>
